<svg xmlns="http://www.w3.org/2000/svg" viewBox="0 0 420 180" role="img" aria-label="Krishna Tiles · Sanitaryware · Taps · Kitchens">
  <g transform="translate(12 20)">
    <rect x="0" y="20" width="22" height="22" transform="rotate(45 11 31)" fill="#884A7F"/>
    <rect x="22" y="0" width="22" height="22" transform="rotate(45 33 11)" fill="#FB743D"/>
    <rect x="22" y="40" width="22" height="22" transform="rotate(45 33 51)" fill="#A5F919"/>
  </g>
  <g fill="none" stroke-linecap="round" stroke-linejoin="round" stroke-width="12">
    <path d="M86 20 L112 60 L86 100" stroke="#181820"/>
    <path d="M112 20 L138 60 L112 100" stroke="#888B8F"/>
    <path d="M138 20 L164 60 L138 100" stroke="#C4C7CA"/>
  </g>
  <text x="180" y="82" font-family="'Inter','Helvetica Neue',Arial,sans-serif" font-size="60" font-weight="800" letter-spacing="-0.5" fill="#0492C5">KRISHNA</text>
  <line x1="12" y1="128" x2="408" y2="128" stroke="#0492C5" stroke-width="2"/>
  <g font-family="'Inter','Helvetica Neue',Arial,sans-serif" font-size="16" font-weight="600" fill="#222223" letter-spacing="3">
    <text x="50" y="158" text-anchor="middle">TILES</text>
    <text x="160" y="158" text-anchor="middle">SANITARYWARE</text>
    <text x="270" y="158" text-anchor="middle">TAPS</text>
    <text x="365" y="158" text-anchor="middle">KITCHENS</text>
  </g>
  <g stroke="#888" stroke-width="1">
    <line x1="100" y1="142" x2="100" y2="162"/>
    <line x1="220" y1="142" x2="220" y2="162"/>
    <line x1="310" y1="142" x2="310" y2="162"/>
  </g>
</svg>